# xmcd
#
# Track frame offsets:
#	150
#	18203
#	28937
#	55712
#	69836
#
# Disc length: 1060 seconds
#
# Revision: 1
# Processed by: cddbd v1.5.1PL0 Copyright (c) Steve Scherf et al.
# Submitted via: CDex 1.50Beta5
#
DISCID=34042205
DTITLE=Various Artist - Happy Christmas -Instrumental Music-
DYEAR=1900
DGENRE=Listening
TTITLE0=HAPPY X'mas
TTITLE1=星に願いを
TTITLE2=LAST CHRISTMAS
TTITLE3=WHITE CHRISTMAS
TTITLE4=SILENT NIGHT
EXTD=
EXTT0=
EXTT1=
EXTT2=
EXTT3=
EXTT4=
PLAYORDER=
